<?xml version="1.0" encoding="UTF-8" standalone="no"?>
<!DOCTYPE svg PUBLIC "-//W3C//DTD SVG 1.1//EN" "http://www.w3.org/Graphics/SVG/1.1/DTD/svg11.dtd">
<svg xmlns="http://www.w3.org/2000/svg" version="1.1" viewBox="0.00 0.00 175.00 139.00">
<g stroke-width="2.00" fill="none" stroke-linecap="butt">
<path stroke="#c16001" vector-effect="non-scaling-stroke" d="
  M 120.29 41.20
  L 114.30 43.38"
/>
<path stroke="#81ae0e" vector-effect="non-scaling-stroke" d="
  M 90.57 40.67
  Q 81.95 41.19 74.17 46.39
  Q 73.38 46.91 73.24 47.56
  A 0.34 0.34 0.0 0 0 73.78 47.89
  C 76.63 45.66 86.35 40.04 89.61 42.83"
/>
<path stroke="#b56021" vector-effect="non-scaling-stroke" d="
  M 71.21 66.45
  L 65.64 69.02"
/>
<path stroke="#c1626c" vector-effect="non-scaling-stroke" d="
  M 121.51 113.29
  L 117.86 110.56"
/>
<path stroke="#c16001" vector-effect="non-scaling-stroke" d="
  M 63.5278 36.3893
  A 2.97 1.23 91.2 0 0 64.8197 33.4458
  A 2.97 1.23 91.2 0 0 63.6522 30.4507
  A 2.97 1.23 91.2 0 0 62.3603 33.3942
  A 2.97 1.23 91.2 0 0 63.5278 36.3893"
/>
<path stroke="#c16001" vector-effect="non-scaling-stroke" d="
  M 61.2279 37.8007
  A 2.85 1.28 59.7 0 0 60.8951 34.6942
  A 2.85 1.28 59.7 0 0 58.3521 32.8793
  A 2.85 1.28 59.7 0 0 58.6849 35.9858
  A 2.85 1.28 59.7 0 0 61.2279 37.8007"
/>
<path stroke="#c16001" vector-effect="non-scaling-stroke" d="
  M 58.8587 39.0888
  A 2.96 1.23 28.2 0 0 56.8312 36.6060
  A 2.96 1.23 28.2 0 0 53.6413 36.2912
  A 2.96 1.23 28.2 0 0 55.6688 38.7740
  A 2.96 1.23 28.2 0 0 58.8587 39.0888"
/>
<path stroke="#81ae0e" vector-effect="non-scaling-stroke" d="
  M 42.4035 56.9964
  A 0.93 0.72 117.3 0 0 43.4698 56.5002
  A 0.93 0.72 117.3 0 0 43.2565 55.3436
  A 0.93 0.72 117.3 0 0 42.1902 55.8398
  A 0.93 0.72 117.3 0 0 42.4035 56.9964"
/>
<path stroke="#81ae0e" vector-effect="non-scaling-stroke" d="
  M 39.9441 59.4994
  A 0.95 0.80 44.8 0 0 39.8337 58.2623
  A 0.95 0.80 44.8 0 0 38.5959 58.1606
  A 0.95 0.80 44.8 0 0 38.7063 59.3977
  A 0.95 0.80 44.8 0 0 39.9441 59.4994"
/>
<path stroke="#81ae0e" vector-effect="non-scaling-stroke" d="
  M 43.59 60.48
  A 0.81 0.81 0.0 0 0 42.78 59.67
  A 0.81 0.81 0.0 0 0 41.97 60.48
  A 0.81 0.81 0.0 0 0 42.78 61.29
  A 0.81 0.81 0.0 0 0 43.59 60.48"
/>
<path stroke="#81ae0e" vector-effect="non-scaling-stroke" d="
  M 50.0650 111.5687
  A 2.30 2.10 67.1 0 0 51.1045 108.6328
  A 2.30 2.10 67.1 0 0 48.2750 107.3313
  A 2.30 2.10 67.1 0 0 47.2355 110.2672
  A 2.30 2.10 67.1 0 0 50.0650 111.5687"
/>
<path stroke="#81ae0e" vector-effect="non-scaling-stroke" d="
  M 54.86 114.16
  A 2.26 2.26 0.0 0 0 52.60 111.90
  A 2.26 2.26 0.0 0 0 50.34 114.16
  A 2.26 2.26 0.0 0 0 52.60 116.42
  A 2.26 2.26 0.0 0 0 54.86 114.16"
/>
<path stroke="#81ae0e" vector-effect="non-scaling-stroke" d="
  M 59.47 117.50
  A 2.19 2.19 0.0 0 0 57.28 115.31
  A 2.19 2.19 0.0 0 0 55.09 117.50
  A 2.19 2.19 0.0 0 0 57.28 119.69
  A 2.19 2.19 0.0 0 0 59.47 117.50"
/>
</g>
<path fill="#ff4d38" d="
  M 97.76 23.79
  Q 94.28 25.29 92.54 28.60
  A 0.90 0.89 -50.9 0 0 92.64 29.59
  C 96.10 33.90 90.25 38.60 87.34 34.53
  C 85.30 31.68 87.30 28.67 90.77 28.74
  Q 91.30 28.75 91.57 28.30
  Q 93.61 24.95 97.04 23.07
  Q 99.84 21.55 99.04 24.63
  Q 97.98 28.69 99.73 32.47
  A 0.88 0.87 65.0 0 0 100.90 32.90
  C 103.28 31.75 105.92 33.27 105.54 35.95
  C 104.99 39.77 98.61 39.19 99.57 34.05
  Q 99.68 33.47 99.33 33.00
  Q 96.36 28.97 98.21 24.23
  A 0.34 0.34 0.0 0 0 97.76 23.79
  Z"
/>
<path fill="#bb0000" d="
  M 72.07 34.28
  C 65.03 37.36 58.28 41.10 52.71 45.40
  C 50.18 47.34 47.81 46.68 47.42 43.40
  Q 46.10 32.36 54.32 27.40
  Q 59.05 24.55 64.20 25.12
  C 66.58 25.38 75.81 29.38 73.74 32.97
  Q 73.30 33.74 72.07 34.28
  Z
  M 63.5278 36.3893
  A 2.97 1.23 91.2 0 0 64.8197 33.4458
  A 2.97 1.23 91.2 0 0 63.6522 30.4507
  A 2.97 1.23 91.2 0 0 62.3603 33.3942
  A 2.97 1.23 91.2 0 0 63.5278 36.3893
  Z
  M 61.2279 37.8007
  A 2.85 1.28 59.7 0 0 60.8951 34.6942
  A 2.85 1.28 59.7 0 0 58.3521 32.8793
  A 2.85 1.28 59.7 0 0 58.6849 35.9858
  A 2.85 1.28 59.7 0 0 61.2279 37.8007
  Z
  M 58.8587 39.0888
  A 2.96 1.23 28.2 0 0 56.8312 36.6060
  A 2.96 1.23 28.2 0 0 53.6413 36.2912
  A 2.96 1.23 28.2 0 0 55.6688 38.7740
  A 2.96 1.23 28.2 0 0 58.8587 39.0888
  Z"
/>
<ellipse fill="#c7c001" cx="0.00" cy="0.00" transform="translate(63.59,33.42) rotate(91.2)" rx="2.97" ry="1.23"/>
<ellipse fill="#c7c001" cx="0.00" cy="0.00" transform="translate(59.79,35.34) rotate(59.7)" rx="2.85" ry="1.28"/>
<path fill="#c7c001" d="
  M 120.29 41.20
  L 114.30 43.38
  Q 114.30 42.22 115.62 41.25
  Q 116.03 40.94 115.70 40.55
  L 112.19 36.29
  A 0.43 0.43 0.0 0 1 112.53 35.59
  Q 112.77 35.59 112.95 35.82
  Q 114.68 37.97 116.44 40.10
  Q 116.75 40.48 117.22 40.35
  Q 118.95 39.89 120.29 41.20
  Z"
/>
<ellipse fill="#c7c001" cx="0.00" cy="0.00" transform="translate(56.25,37.69) rotate(28.2)" rx="2.96" ry="1.23"/>
<path fill="#3a9b1a" d="
  M 90.57 40.67
  Q 81.95 41.19 74.17 46.39
  Q 73.38 46.91 73.24 47.56
  A 0.34 0.34 0.0 0 0 73.78 47.89
  C 76.63 45.66 86.35 40.04 89.61 42.83
  L 87.12 46.70
  Q 86.80 47.20 86.30 46.90
  L 83.78 45.39
  A 1.16 1.15 26.8 0 0 82.12 45.93
  L 79.89 51.24
  A 0.89 0.89 0.0 0 1 79.07 51.78
  L 75.91 51.76
  A 0.91 0.91 0.0 0 0 75.12 52.22
  L 74.04 54.11
  A 0.63 0.63 0.0 0 1 73.14 54.32
  Q 71.44 53.20 72.11 51.05
  A 0.35 0.34 73.9 0 0 71.52 50.72
  Q 71.15 51.16 70.62 51.57
  A 1.50 1.49 5.6 0 1 68.72 49.26
  Q 70.69 47.54 70.74 44.81
  Q 70.75 44.21 71.34 44.10
  L 73.90 43.60
  A 0.53 0.53 0.0 0 0 74.31 42.97
  L 73.78 40.40
  A 1.42 1.41 -79.8 0 1 75.92 38.91
  L 78.76 40.70
  A 0.98 0.97 -46.9 0 0 79.84 40.66
  Q 84.86 37.06 90.57 40.67
  Z"
/>
<path fill="#c7c001" d="
  M 90.57 40.67
  L 104.69 43.24
  A 0.37 0.36 47.7 0 1 104.66 43.96
  Q 103.77 44.03 102.77 43.68
  Q 96.69 41.55 90.75 41.98
  Q 89.87 42.05 89.61 42.83
  C 86.35 40.04 76.63 45.66 73.78 47.89
  A 0.34 0.34 0.0 0 1 73.24 47.56
  Q 73.38 46.91 74.17 46.39
  Q 81.95 41.19 90.57 40.67
  Z"
/>
<path fill="#bb0000" d="
  M 120.29 41.20
  C 122.55 41.32 124.60 42.15 126.00 44.10
  C 135.90 57.95 129.44 72.37 117.48 82.00
  Q 116.92 82.45 117.19 81.78
  C 119.42 76.19 121.45 68.55 120.23 62.59
  Q 119.84 60.68 118.00 58.30
  Q 114.69 54.05 112.81 49.00
  C 111.98 46.75 112.82 45.00 114.30 43.38
  L 120.29 41.20
  Z"
/>
<path fill="#dfc497" d="
  M 61.34 85.21
  Q 66.08 84.57 69.41 87.35
  C 73.33 90.62 81.34 102.60 76.75 107.53
  C 70.41 114.34 46.94 100.76 58.34 87.67
  Q 58.67 87.29 58.44 86.84
  Q 48.18 66.85 57.68 46.41
  Q 58.58 44.45 60.45 43.40
  A 1.28 1.28 0.0 0 1 62.33 44.75
  C 61.26 50.61 59.35 57.14 58.87 62.48
  Q 57.86 73.77 60.79 84.84
  Q 60.90 85.27 61.34 85.21
  Z"
/>
<path fill="#dfc497" d="
  M 101.80 67.86
  C 105.36 61.46 96.29 53.70 91.96 50.56
  A 1.39 1.38 35.0 0 1 91.62 48.66
  C 92.38 47.55 93.44 47.58 94.52 48.30
  C 101.71 53.16 110.21 62.98 103.09 71.81
  Q 102.77 72.21 103.12 72.59
  Q 109.21 79.04 111.87 86.51
  Q 115.63 97.09 112.18 107.79
  Q 111.05 111.29 108.47 112.71
  A 1.28 1.28 0.0 0 1 106.59 111.38
  C 107.96 103.05 108.90 95.18 106.60 87.07
  Q 104.75 80.49 101.63 74.35
  A 0.57 0.56 -27.4 0 0 100.85 74.11
  C 92.93 78.48 84.09 71.75 78.92 66.18
  A 2.02 2.01 -50.0 0 1 78.71 63.73
  C 79.38 62.69 80.72 62.93 81.49 63.83
  C 84.71 67.57 94.18 75.18 98.49 71.37
  Q 98.84 71.06 98.62 70.65
  Q 93.47 61.32 84.65 55.27
  A 1.44 1.44 0.0 0 1 84.63 52.91
  L 85.47 52.32
  Q 85.99 51.94 86.50 52.34
  Q 94.79 58.73 96.66 61.59
  Q 98.77 64.82 101.07 67.91
  Q 101.47 68.44 101.80 67.86
  Z"
/>
<path fill="#3a9b1a" d="
  M 42.03 93.80
  C 31.70 92.20 31.75 75.15 32.86 67.86
  Q 34.20 59.09 40.70 52.46
  C 42.85 50.27 49.96 45.96 49.83 52.26
  C 49.71 58.46 47.60 64.51 47.29 69.94
  Q 46.89 77.02 47.28 85.73
  Q 47.47 89.98 44.08 92.51
  Q 43.65 92.84 43.56 93.37
  L 43.04 96.57
  Q 42.97 97.03 43.25 97.41
  Q 44.12 98.58 43.98 100.04
  Q 43.93 100.65 43.65 100.11
  L 42.51 97.94
  A 0.61 0.61 0.0 0 0 41.85 97.62
  L 39.33 98.08
  A 0.75 0.74 22.1 0 1 38.76 96.74
  Q 39.96 95.89 41.40 96.20
  A 0.71 0.71 0.0 0 0 42.25 95.61
  L 42.44 94.35
  Q 42.51 93.87 42.03 93.80
  Z
  M 42.4035 56.9964
  A 0.93 0.72 117.3 0 0 43.4698 56.5002
  A 0.93 0.72 117.3 0 0 43.2565 55.3436
  A 0.93 0.72 117.3 0 0 42.1902 55.8398
  A 0.93 0.72 117.3 0 0 42.4035 56.9964
  Z
  M 39.9441 59.4994
  A 0.95 0.80 44.8 0 0 39.8337 58.2623
  A 0.95 0.80 44.8 0 0 38.5959 58.1606
  A 0.95 0.80 44.8 0 0 38.7063 59.3977
  A 0.95 0.80 44.8 0 0 39.9441 59.4994
  Z
  M 43.59 60.48
  A 0.81 0.81 0.0 0 0 42.78 59.67
  A 0.81 0.81 0.0 0 0 41.97 60.48
  A 0.81 0.81 0.0 0 0 42.78 61.29
  A 0.81 0.81 0.0 0 0 43.59 60.48
  Z"
/>
<ellipse fill="#c7c001" cx="0.00" cy="0.00" transform="translate(42.83,56.17) rotate(117.3)" rx="0.93" ry="0.72"/>
<path fill="#c7c001" d="
  M 71.21 66.45
  L 65.64 69.02
  C 59.21 70.69 58.99 62.88 65.70 65.19
  Q 66.19 65.36 65.93 64.91
  Q 62.88 59.75 68.14 56.62
  C 69.69 55.70 71.11 56.06 72.39 57.30
  Q 76.97 61.70 71.21 66.45
  Z"
/>
<ellipse fill="#c7c001" cx="0.00" cy="0.00" transform="translate(39.27,58.83) rotate(44.8)" rx="0.95" ry="0.80"/>
<circle fill="#c7c001" cx="42.78" cy="60.48" r="0.81"/>
<path fill="#a30041" d="
  M 65.64 69.02
  L 71.21 66.45
  Q 75.52 65.48 77.06 68.48
  C 78.77 71.81 82.16 75.69 77.97 78.96
  Q 77.55 79.29 77.79 79.77
  Q 79.34 82.95 76.96 85.90
  A 0.76 0.76 0.0 0 0 76.85 86.69
  L 77.89 89.07
  Q 78.05 89.44 77.67 89.30
  C 74.35 88.10 76.15 83.46 75.71 80.70
  A 0.50 0.49 67.9 0 0 74.94 80.37
  C 71.83 82.56 68.67 82.05 66.79 78.77
  C 64.86 75.39 62.69 72.86 65.64 69.02
  Z"
/>
<path fill="#dfc497" d="
  M 121.51 113.29
  L 117.86 110.56
  Q 130.74 91.69 132.51 69.51
  A 0.99 0.98 -63.6 0 1 134.22 68.93
  Q 137.78 72.91 138.39 78.26
  Q 140.84 99.80 128.05 116.97
  Q 127.72 117.42 127.25 117.11
  L 121.51 113.29
  Z"
/>
<ellipse fill="#ffd900" cx="0.00" cy="0.00" transform="translate(94.50,95.50) rotate(81.2)" rx="15.39" ry="8.94"/>
<path fill="#3a9b1a" d="
  M 49.61 96.76
  A 0.87 0.87 0.0 0 0 48.48 97.76
  C 50.50 107.65 58.53 116.35 69.04 116.76
  Q 69.63 116.78 69.23 117.21
  C 62.18 124.97 49.65 121.03 46.29 112.00
  Q 44.29 106.63 46.58 101.00
  C 47.50 98.76 47.65 95.95 49.16 93.74
  A 0.50 0.49 47.6 0 1 50.00 93.78
  L 51.35 96.27
  A 0.59 0.59 0.0 0 1 50.65 97.11
  L 49.61 96.76
  Z
  M 50.0650 111.5687
  A 2.30 2.10 67.1 0 0 51.1045 108.6328
  A 2.30 2.10 67.1 0 0 48.2750 107.3313
  A 2.30 2.10 67.1 0 0 47.2355 110.2672
  A 2.30 2.10 67.1 0 0 50.0650 111.5687
  Z
  M 54.86 114.16
  A 2.26 2.26 0.0 0 0 52.60 111.90
  A 2.26 2.26 0.0 0 0 50.34 114.16
  A 2.26 2.26 0.0 0 0 52.60 116.42
  A 2.26 2.26 0.0 0 0 54.86 114.16
  Z
  M 59.47 117.50
  A 2.19 2.19 0.0 0 0 57.28 115.31
  A 2.19 2.19 0.0 0 0 55.09 117.50
  A 2.19 2.19 0.0 0 0 57.28 119.69
  A 2.19 2.19 0.0 0 0 59.47 117.50
  Z"
/>
<path fill="#3a9b1a" d="
  M 44.17 100.82
  C 44.41 103.81 44.30 105.89 40.88 106.54
  Q 40.49 106.61 40.37 106.43
  Q 40.30 106.32 40.30 106.13
  Q 40.29 105.80 40.61 105.73
  Q 44.33 104.87 44.09 100.84
  Q 44.09 100.80 44.11 100.78
  Q 44.16 100.71 44.17 100.82
  Z"
/>
<ellipse fill="#c7c001" cx="0.00" cy="0.00" transform="translate(49.17,109.45) rotate(67.1)" rx="2.30" ry="2.10"/>
<path fill="#ff4d38" d="
  M 80.23 111.86
  Q 79.83 112.96 81.00 112.78
  Q 86.20 111.93 88.97 113.86
  Q 91.48 115.60 91.47 120.12
  Q 91.46 127.19 85.67 131.44
  C 80.81 135.00 73.99 126.59 72.85 122.98
  C 70.88 116.78 75.00 115.49 79.24 113.16
  Q 79.64 112.94 79.60 112.49
  Q 79.37 109.45 81.37 107.23
  A 0.26 0.26 0.0 0 1 81.80 107.49
  L 80.23 111.86
  Z"
/>
<path fill="#a30041" d="
  M 117.86 110.56
  L 121.51 113.29
  C 117.70 116.65 109.59 124.34 104.89 124.91
  C 103.15 125.12 101.43 123.30 101.62 121.46
  Q 101.82 119.50 103.44 118.83
  Q 113.04 114.84 117.86 110.56
  Z"
/>
<circle fill="#c7c001" cx="52.60" cy="114.16" r="2.26"/>
<circle fill="#c7c001" cx="57.28" cy="117.50" r="2.19"/>
</svg>
